<svg width="24" height="25" viewBox="0 0 24 25" fill="none" xmlns="http://www.w3.org/2000/svg"><g clip-path="url(#clip0_219_605)"><path d="M24 12.2366C24 5.47686 18.629 0 12 0 5.37097 0 0 5.47686 0 12.2366c0 6.1074 4.38822 11.1698 10.125 12.0885v-8.5513H7.07662v-3.5372H10.125V9.54057c0-3.06653 1.7903-4.76041 4.5324-4.76041 1.3133 0 2.6864.23881 2.6864.23881v3.0098h-1.5135c-1.4903 0-1.9553.9434-1.9553 1.91097v2.29686h3.3281l-.5323 3.5372H13.875v8.5513C19.6117 23.4064 24 18.344 24 12.2366z" fill="#fff"/></g><defs><clipPath id="clip0_219_605"><path fill="#fff" d="M0 0h24v24.4731H0z"/></clipPath></defs></svg>