<svg width="25" height="25" viewBox="0 0 25 25" fill="none" xmlns="http://www.w3.org/2000/svg"><path d="M12.32 6.17967c3.4047.06208 6.1018 2.91316 6.0409 6.38573-.0609 3.4726-2.8563 6.2235-6.2609 6.1614-3.40472-.0621-6.10184-2.9132-6.04095-6.3857.0609-3.47259 2.85627-6.22352 6.26095-6.16143zm-.1815 10.35223c2.2001.0401 4.0309-1.7561 4.0704-4.0057.0394-2.2496-1.7218-4.11137-3.9274-4.15158-2.2056-.04022-4.03102 1.75618-4.07047 4.00568-.03945 2.2496 1.72723 4.1115 3.92747 4.1516zM4.48724 5.78013c-.01427.81356.61672 1.47501 1.40907 1.48946.79764.01455 1.44611-.62905 1.46028-1.43713.01417-.80809-.61672-1.47501-1.40895-1.48946-.79236-.01445-1.44623.62905-1.4604 1.43713zM.387362 7.19098C.512683 5.23249.982143 3.50419 2.41509 2.09934 3.84275.694378 5.55301.277698 7.47659.214463 9.45925.135919 15.3961.244178 17.3748.394957c1.9149.127768 3.6094.606533 4.9922 2.062743 1.3828 1.45621 1.786 3.20041 1.848 5.16232.077 2.02226-.0292 8.07748-.1771 10.09558-.1253 1.9586-.5948 3.6868-2.0278 5.0917-1.433 1.4048-3.1378 1.8217-5.0614 1.8849-1.9827.0785-7.91957-.0298-9.8982-.1805-1.92023-.1279-3.61479-.6067-4.99219-2.0682C.680944 20.9873.272381 19.2431.210412 17.2811c-.076993-2.0222.0291-8.07196.17695-10.09012zM2.73123 19.4954c.39877 1.0779 1.19274 1.917 2.23969 2.3676 1.56811.6676 5.31798.5885 7.06318.6203 1.7451.0318 5.4953.2423 7.0803-.3624 1.0567-.4067 1.8795-1.2165 2.3213-2.2844.6546-1.5993.5771-5.4239.6083-7.2039.0312-1.78.2375-5.60495-.3553-7.22152-.3988-1.07778-1.1927-1.91699-2.2397-2.36757-1.5681-.66761-5.318-.58853-7.0631-.62035-1.7452-.03183-5.4954-.24222-7.08042.36245-1.0567.40675-1.87947 1.21647-2.32127 2.28439-.65455 1.5993-.577 5.424-.60821 7.2039-.03122 1.7801-.24292 5.6049.35523 7.2215z" fill="#fff"/></svg>